<svg t="1623583628162" class="icon" viewBox="0 0 1045 1024" version="1.1"
    xmlns="http://www.w3.org/2000/svg" p-id="6960" width="90" height="90">
    <path d="M459.591826 21.301357a82.136107 82.136107 0 0 1 110.371756 0.021786l440.419471 423.643663a41.176987 41.176987 0 0 1 2.984787 58.170664c-15.228949 16.928317-41.176987 18.191949-59.47787 1.655795L626.260585 820.679583v-44.53215a57.952797 57.952797 0 0 0-57.996371-58.039944h-112.746513a57.974584 57.974584 0 0 0-57.996371 58.039944V1023.993682H157.888692a82.353975 82.353975 0 0 1-82.353975-82.419335V499.36836l-7.080699 6.732111a41.176987 41.176987 0 0 1-55.120517-61.155452zM950.25158 588.258365c9.368309 0 18.213736 4.400927 23.812935 11.873787l47.62587 47.320855h-0.217868c12.52739 13.377074 15.032868 33.224818 6.209229 49.259878l-13.87817 13.791023-279.742074 276.038323L615.0404 1023.993682h-3.986978a12.331309 12.331309 0 0 1-11.895574-7.886809c-1.982596 0-1.982596-1.960809-1.982596-3.921618v-3.921618l29.738936-118.323925 285.668074-276.038324 13.878169-13.769236A29.760722 29.760722 0 0 1 950.25158 588.258365z" p-id="6961" fill="#3f3f3f"></path>
</svg>