<svg t="1623577712749" class="icon" viewBox="0 0 1024 1024" version="1.1"
    xmlns="http://www.w3.org/2000/svg" p-id="5233" width="90" height="90">
    <path d="M512 343.04c87.644 0 158.72 71.045 158.72 158.72 0 87.644-71.076 158.72-158.72 158.72s-158.72-71.076-158.72-158.72c0-87.675 71.076-158.72 158.72-158.72z m417.28 81.92c46.648 0 84.48 37.811 84.48 84.48 0 46.648-37.832 84.48-84.48 84.48s-84.48-37.832-84.48-84.48c0-46.669 37.832-84.48 84.48-84.48zM179.2 511.145c0 46.653-37.832 84.48-84.48 84.48s-84.48-37.827-84.48-84.48c0-46.664 37.832-84.48 84.48-84.48s84.48 37.821 84.48 84.48z" p-id="5234" fill="#3f3f3f"></path>
</svg>